<svg xmlns="http://www.w3.org/2000/svg" version="1.1" xmlns:xlink="http://www.w3.org/1999/xlink" xmlns:svgjs="http://svgjs.dev/svgjs" width="1440" height="560" preserveAspectRatio="none" viewBox="0 0 1440 560"><g mask="url(&quot;#SvgjsMask1063&quot;)" fill="none"><rect width="1440" height="560" x="0" y="0" fill="url(&quot;#SvgjsLinearGradient1064&quot;)"></rect><path d="M285.87 131.7a51.75 51.75 0 1 0-101.7 19.21z" stroke="#d3b714"></path><path d="M1359.42 269.8L1384.88 269.8L1384.88 281.89L1359.42 281.89z" stroke="#d3b714"></path><path d="M292.39 149.43 a51.04 51.04 0 1 0 102.08 0 a51.04 51.04 0 1 0 -102.08 0z" fill="#e73635"></path><path d="M1259.84 364.31 a50.48 50.48 0 1 0 100.96 0 a50.48 50.48 0 1 0 -100.96 0z" fill="#037b0b"></path><path d="M809.21 76 a8.27 8.27 0 1 0 16.54 0 a8.27 8.27 0 1 0 -16.54 0z" fill="#037b0b"></path><path d="M370.94 453.48a7.4 7.4 0 1 0-14.8 0.22z" stroke="#e73635"></path><path d="M1422.89 133.42L1430.83 133.42L1430.83 178.73L1422.89 178.73z" fill="#d3b714"></path><path d="M291.99 460.65a36.32 36.32 0 1 0 71.9 10.34z" fill="#e73635"></path><path d="M495.04 223.28L500.45 223.28L500.45 243.07L495.04 243.07z" stroke="#037b0b"></path><path d="M73.14 334.03a13.62 13.62 0 1 0-18.79 19.72z" stroke="#e73635"></path><path d="M173.27 145.04L210.3 145.04L210.3 182.07L173.27 182.07z" fill="#d3b714"></path><path d="M847.45 166.25a25.79 25.79 0 1 0-21.3-46.98z" fill="#e73635"></path><path d="M713.84 371.57L749.72 371.57L749.72 407.45L713.84 407.45z" stroke="#d3b714"></path><path d="M789.29 475.18L818.44 475.18L818.44 493.48L789.29 493.48z" stroke="#e73635"></path><path d="M561.39 401.8L595.94 401.8L595.94 432.08L561.39 432.08z" stroke="#037b0b"></path><path d="M312.76 213.5a44.04 44.04 0 1 0 61.17-63.37z" stroke="#e73635"></path><path d="M598.5 194.66 a19.38 19.38 0 1 0 38.76 0 a19.38 19.38 0 1 0 -38.76 0z" stroke="#037b0b"></path><path d="M93.58 156.21L108.2 156.21L108.2 170.83L93.58 170.83z" fill="#d3b714"></path><path d="M1239.34 405.8L1267.45 405.8L1267.45 433.91L1239.34 433.91z" stroke="#d3b714"></path><path d="M396.8 494.82L405.83 494.82L405.83 503.85L396.8 503.85z" fill="#e73635"></path><path d="M600.18 145.32 a1.85 1.85 0 1 0 3.7 0 a1.85 1.85 0 1 0 -3.7 0z" stroke="#037b0b"></path><path d="M361.49 442.44 a41.63 41.63 0 1 0 83.26 0 a41.63 41.63 0 1 0 -83.26 0z" fill="#d3b714"></path><path d="M1247.66 331.72a48.58 48.58 0 1 0 85.58 46.01z" stroke="#037b0b"></path><path d="M394.83-11.17a30.17 30.17 0 1 0 38.56 46.42z" stroke="#037b0b"></path><path d="M319.79 471.36L341.24 471.36L341.24 492.81L319.79 492.81z" fill="#e73635"></path><path d="M524.75 334.64L555.18 334.64L555.18 369.83L524.75 369.83z" stroke="#d3b714"></path><path d="M1214.16 267.76L1266.34 267.76L1266.34 319.94L1214.16 319.94z" fill="#d3b714"></path><path d="M34.66 263.8a0.09 0.09 0 1 0-0.12-0.14z" fill="#037b0b"></path><path d="M914.24 309.04L949.94 309.04L949.94 309.59L914.24 309.59z" fill="#e73635"></path><path d="M849.73 461.18L867.54 461.18L867.54 479.35L849.73 479.35z" stroke="#e73635"></path><path d="M953.41 446.84L1001.09 446.84L1001.09 486.51L953.41 486.51z" stroke="#037b0b"></path><path d="M1372.07 276.98 a54.38 54.38 0 1 0 108.76 0 a54.38 54.38 0 1 0 -108.76 0z" stroke="#e73635"></path><path d="M546.08 215.78a39.62 39.62 0 1 0-14.52-77.9z" stroke="#e73635"></path></g><defs><mask id="SvgjsMask1063"><rect width="1440" height="560" fill="#ffffff"></rect></mask><linearGradient x1="15.28%" y1="-39.29%" x2="84.72%" y2="139.29%" gradientUnits="userSpaceOnUse" id="SvgjsLinearGradient1064"><stop stop-color="#0e2a47" offset="0"></stop><stop stop-color="rgba(30, 70, 142, 1)" offset="1"></stop></linearGradient></defs></svg>